<svg id="exportSVG" visibility="visible" xmlns="http://www.w3.org/2000/svg" xmlns:xlink="http://www.w3.org/1999/xlink" version="1.1" data-info="draw.ninja" data-name="icon221" viewBox="0 0 320 320" width="320" height="320" style="position: fixed; top: 0px; left: 0px;"><defs id="defsExport"><filter id="filter0"><feGaussianBlur stdDeviation="0"></feGaussianBlur></filter><pattern id="patternImage" patternUnits="userSpaceOnUse" x="0" y="0" width="1" height="1" data-x="0" data-y="0" data-width="1" data-height="1" data-multx="1" data-multy="1" patternTransform="matrix(1,0,0,1,0,0)" data-transs="0" data-transf="0" data-source="patternImage" data-draw="1" fill="#B3B3B3" fill-opacity="1"></pattern><pattern id="pattern0" patternUnits="userSpaceOnUse" x="0" y="0" width="10" height="10" data-x="0" data-y="0" data-width="10" data-height="10" data-multx="1" data-multy="1" stroke="none" patternTransform="matrix(1,0,0,1,0,0)" data-transs="0" data-transf="0" data-source="Pattern 0" data-draw="1" fill="#B3B3B3" fill-opacity="1"><path transform="matrix(1,0,0,1,0,0)" d="M0 0 L5 0 L5 5 L0 5 L0 0 Z"></path></pattern><pattern id="pattern1" patternUnits="userSpaceOnUse" x="0" y="0" width="10" height="10" data-x="0" data-y="0" data-width="10" data-height="10" data-multx="1" data-multy="1" stroke="none" patternTransform="matrix(1,0,0,1,0,0)" data-transs="0" data-transf="0" data-source="Pattern 1" data-draw="1" fill="#B3B3B3" fill-opacity="1"><path transform="matrix(1,0,0,1,0,0)" d="M0 5 L5 0 L10 5 L5 10 L0 5 Z"></path></pattern><pattern id="pattern2" patternUnits="userSpaceOnUse" x="0" y="0" width="10" height="10" data-x="0" data-y="0" data-width="10" data-height="10" data-multx="1" data-multy="1" stroke="none" patternTransform="matrix(1,0,0,1,0,0)" data-transs="0" data-transf="0" data-source="Pattern 2" data-draw="1" fill="#B3B3B3" fill-opacity="1"><path transform="matrix(1,0,0,1,0,0)" d="M0 9 L5 1 L10 9 L0 9 Z"></path></pattern><pattern id="pattern3" patternUnits="userSpaceOnUse" x="0" y="0" width="10" height="10" data-x="0" data-y="0" data-width="10" data-height="10" data-multx="1" data-multy="1" stroke="none" patternTransform="matrix(1,0,0,1,0,0)" data-transs="0" data-transf="0" data-source="Pattern 3" data-draw="1" fill="#B3B3B3" fill-opacity="1"><path transform="matrix(1,0,0,1,0,0)" d="M0 5 C0 2.25 2.25 0 5 0 C7.75 0 10 2.25 10 5 C10 7.75 7.75 10 5 10 C2.25 10 0 7.75 0 5 Z"></path></pattern><pattern id="pattern4" patternUnits="userSpaceOnUse" x="0" y="0" width="10" height="10" data-x="0" data-y="0" data-width="10" data-height="10" data-multx="1" data-multy="1" stroke="none" patternTransform="matrix(1,0,0,1,0,0)" data-transs="0" data-transf="0" data-source="Pattern 4" data-draw="1" fill="#B3B3B3" fill-opacity="1"><path transform="matrix(1,0,0,1,0,0)" d="M0 5 L4 4 L5 0 L6 4 L10 5 L6 6 L5 10 L4 6 L0 5 Z"></path></pattern><pattern id="pattern5" patternUnits="userSpaceOnUse" x="0" y="0" width="10" height="10" data-x="0" data-y="0" data-width="10" data-height="10" data-multx="1" data-multy="1" stroke="none" patternTransform="matrix(1,0,0,1,0,0)" data-transs="0" data-transf="0" data-source="Pattern 5" data-draw="1" fill="#B3B3B3" fill-opacity="1"><path transform="matrix(1,0,0,1,0,0)" d="M5 10 C-5 2.75 3 -1.75 5 1 C7 -1.75 15 2.75 5 10 Z"></path></pattern><pattern id="pattern6" patternUnits="userSpaceOnUse" x="0" y="0" width="10" height="10" data-x="0" data-y="0" data-width="10" data-height="10" data-multx="1" data-multy="1" stroke="none" patternTransform="matrix(1,0,0,1,0,0)" data-transs="0" data-transf="0" data-source="Pattern 6" data-draw="1" fill="#B3B3B3" fill-opacity="1"><path transform="matrix(1,0,0,1,0,0)" d="M3 0 L7 0 L7 10 L3 10 L3 0 Z"></path></pattern><pattern id="pattern7" patternUnits="userSpaceOnUse" x="0" y="0" width="10" height="10" data-x="0" data-y="0" data-width="10" data-height="10" data-multx="1" data-multy="1" stroke="none" patternTransform="matrix(1,0,0,1,0,0)" data-transs="0" data-transf="0" data-source="Pattern 7" data-draw="1" fill="#B3B3B3" fill-opacity="1"><path transform="matrix(1,0,0,1,0,0)" d="M10 3 L10 7 L0 7 L0 3 L10 3 Z"></path></pattern><pattern id="pattern8" patternUnits="userSpaceOnUse" x="0" y="0" width="10" height="10" data-x="0" data-y="0" data-width="10" data-height="10" data-multx="1" data-multy="1" stroke="none" patternTransform="matrix(1,0,0,1,0,0)" data-transs="0" data-transf="0" data-source="Pattern 8" data-draw="1" fill="#B3B3B3" fill-opacity="1"><path transform="matrix(1,0,0,1,0,0)" d="M0 10 L3 3 L10 0 L7 7 L0 10 Z"></path></pattern><pattern id="pattern9" patternUnits="userSpaceOnUse" x="0" y="0" width="10" height="10" data-x="0" data-y="0" data-width="10" data-height="10" data-multx="1" data-multy="1" stroke="none" patternTransform="matrix(1,0,0,1,0,0)" data-transs="0" data-transf="0" data-source="Pattern 9" data-draw="1" fill="#B3B3B3" fill-opacity="1"><path transform="matrix(1,0,0,1,0,0)" d="M0 4 L10 4 L10 6 L0 6 L0 4 Z M4 10 L4 0 L6 0 L6 10 L4 10 Z"></path></pattern><linearGradient id="linearSystem" gradientUnits="objectBoundingBox" x1="0%" y1="50%" x2="100%" y2="50%" spreadMethod="pad"><stop offset="50%" stop-color="#D0D0D0" stop-opacity="1"></stop><stop offset="100%" stop-color="transparent" stop-opacity="1"></stop></linearGradient><linearGradient id="linearSystem1" gradientUnits="objectBoundingBox" x1="0%" y1="50%" x2="100%" y2="50%" spreadMethod="pad"><stop offset="30%" stop-color="#D0D0D0" stop-opacity="1"></stop><stop offset="100%" stop-color="transparent" stop-opacity="1"></stop></linearGradient><linearGradient id="linearSystem2" gradientUnits="objectBoundingBox" x1="0%" y1="50%" x2="50%" y2="50%" spreadMethod="repeat"><stop offset="30%" stop-color="#D0D0D0" stop-opacity="1"></stop><stop offset="100%" stop-color="transparent" stop-opacity="1"></stop></linearGradient><linearGradient id="linearSystem3" gradientUnits="objectBoundingBox" x1="0%" y1="50%" x2="50%" y2="50%" spreadMethod="reflect"><stop offset="30%" stop-color="#D0D0D0" stop-opacity="1"></stop><stop offset="100%" stop-color="transparent" stop-opacity="1"></stop></linearGradient><radialGradient id="radialSystem" gradientUnits="objectBoundingBox" r="0.5" cx="0.5" fx="0.5" cy="0.5" fy="0.5" spreadMethod="pad"><stop offset="50%" stop-color="#D0D0D0" stop-opacity="1"></stop><stop offset="100%" stop-color="transparent" stop-opacity="1"></stop></radialGradient><pattern id="patternSystem" patternUnits="userSpaceOnUse" x="0" y="0" width="6" height="8"><path stroke="#D0D0D0" stroke-width="5" fill="none" d="M0 0 L0 10"></path></pattern><linearGradient id="linear0" gradientUnits="objectBoundingBox" x1="0%" y1="50%" x2="100%" y2="50%" spreadMethod="pad"><stop offset="0%" stop-color="#FF8000" stop-opacity="1"></stop><stop offset="100%" stop-color="#FFFF00" stop-opacity="1"></stop></linearGradient><linearGradient id="linear1" gradientUnits="objectBoundingBox" x1="0%" y1="50%" x2="100%" y2="50%" spreadMethod="pad"><stop offset="0%" stop-color="#FFFF00" stop-opacity="1"></stop><stop offset="100%" stop-color="#FF8000" stop-opacity="1"></stop></linearGradient><linearGradient id="linearImport" gradientUnits="objectBoundingBox" x1="0%" y1="50%" x2="100%" y2="50%" spreadMethod="pad"><stop offset="0%" stop-color="#FFFFFF" stop-opacity="0.1"></stop><stop offset="100%" stop-color="#000000" stop-opacity="0.1"></stop></linearGradient><radialGradient id="radial0" gradientUnits="objectBoundingBox" r="0.5" cx="0.5" fx="0.5" cy="0.5" fy="0.5" spreadMethod="pad"><stop offset="0%" stop-color="#FF8000" stop-opacity="1"></stop><stop offset="100%" stop-color="#FFFF00" stop-opacity="1"></stop></radialGradient><radialGradient id="radial1" gradientUnits="objectBoundingBox" r="0.5" cx="0.5" fx="0.5" cy="0.5" fy="0.5" spreadMethod="pad"><stop offset="0%" stop-color="#FFFF00" stop-opacity="1"></stop><stop offset="100%" stop-color="#FF8000" stop-opacity="1"></stop></radialGradient><radialGradient id="radialImport" gradientUnits="objectBoundingBox" r="0.5" cx="0.5" fx="0.5" cy="0.5" fy="0.5" spreadMethod="pad"><stop offset="0%" stop-color="#FFFFFF" stop-opacity="0.1"></stop><stop offset="100%" stop-color="#000000" stop-opacity="0.1"></stop></radialGradient></defs><rect id="pageExport" x="0" y="0" width="320" height="320" fill="none" fill-opacity="0" stroke="none" stroke-width="0"></rect><g id="objectsExport" visibility="visible"><g id="group38" visibility="visible" stroke="#000000" stroke-width="NaN" stroke-opacity="1" stroke-dasharray="none" fill="none" fill-opacity="1" data-name="group" data-title="group" deg="0" data-edit="1" data-centerx="160" data-centery="160"><path id="path37" visibility="visible" stroke="#000000" stroke-width="2" stroke-opacity="1" stroke-linecap="round" stroke-linejoin="round" stroke-dasharray="none" marker-start="none" marker-end="none" fill="#FFFFFF" fill-rule="evenodd" fill-opacity="1" data-name="curve" data-title="curve" deg="0" data-sw="2" data-grad="0" data-group="group38" data-edit="1" filter="none" d="M61.286 176.591 L146.717 81.368 C160.012 80.942 168.034 81.121 182.687 82.154 L213.215 87.688 C218.238 89.96 220.853 92.538 224.756 97.654 L253.035 143.341 C260.105 179.25 259.18 203.674 248.739 246.144 L156.776 282.053 L71.876 249.347 C60.406 227.259 60.131 194.597 61.286 176.591 Z " data-centerx="161.519" data-centery="218.68"></path><g id="group36" visibility="visible" stroke="#000000" stroke-width="2" stroke-opacity="1" stroke-dasharray="none" fill="none" fill-opacity="1" data-name="group" data-title="group" deg="0" data-edit="1" data-centerx="159.835" data-centery="182.239"><path id="path8" visibility="visible" stroke="#000000" stroke-width="2" stroke-opacity="1" stroke-linecap="round" stroke-linejoin="round" stroke-dasharray="none" marker-start="none" marker-end="none" fill="#FFFF80" fill-rule="evenodd" fill-opacity="1" data-name="curve" data-title="curve" deg="0" data-sw="2" data-grad="0" data-group="group38" data-edit="1" filter="none" d="M182.474 245.233 C182.474 239.218 186.994 234.296 192.517 234.296 C198.039 234.296 202.558 239.218 202.558 245.233 C202.558 251.248 198.039 256.17 192.517 256.17 C186.994 256.17 182.474 251.248 182.474 245.233 Z M117.442 245.233 C117.442 239.218 121.962 234.296 127.484 234.296 C133.007 234.296 137.527 239.218 137.527 245.233 C137.527 251.248 133.007 256.17 127.484 256.17 C121.962 256.17 117.442 251.248 117.442 245.233 Z M70.582 245.233 C70.582 221.473 110.82 202.033 160 202.033 C209.181 202.033 249.419 221.473 249.419 245.233 C249.419 268.993 209.181 288.433 160 288.433 C110.82 288.433 70.582 268.993 70.582 245.233 Z " data-centerx="89.616" data-centery="216.687"></path><g id="group19" visibility="visible" stroke="#000000" stroke-width="2" stroke-opacity="1" stroke-dasharray="none" fill="none" fill-opacity="1" data-name="group" data-title="group" deg="0" data-edit="1" data-centerx="56.5" data-centery="30.559" data-group="group38"><path id="path18" visibility="visible" stroke="#000000" stroke-width="2" stroke-opacity="1" stroke-linecap="round" stroke-linejoin="round" stroke-dasharray="none" marker-start="none" marker-end="none" fill="#FFFF80" fill-rule="evenodd" fill-opacity="1" data-name="curve" data-title="curve" deg="10" data-sw="2" data-grad="0" data-group="group38" data-edit="1" filter="none" d="M182.334 82.019 C187.146 52.697 198.077 30.03 206.625 31.649 C215.171 33.268 218.226 58.584 213.414 87.907 L182.334 82.019 Z " data-centerx="98.839" data-centery="29.76"></path><path id="path17" visibility="visible" stroke="#000000" stroke-width="2" stroke-opacity="1" stroke-linecap="round" stroke-linejoin="round" stroke-dasharray="none" marker-start="none" marker-end="none" fill="#FFFF80" fill-rule="evenodd" fill-opacity="1" data-name="curve" data-title="curve" deg="350" data-sw="2" data-grad="0" data-group="group38" data-edit="1" filter="none" d="M106.586 87.907 C101.774 58.584 104.829 33.268 113.375 31.649 C121.923 30.03 132.854 52.697 137.666 82.019 L106.586 87.907 Z " data-centerx="14.341" data-centery="29.76"></path></g><g id="group21" visibility="visible" stroke="#000000" stroke-width="2" stroke-opacity="1" stroke-dasharray="none" fill="none" fill-opacity="1" data-name="group" data-title="group" deg="0" data-edit="1" data-centerx="56.5" data-centery="86" data-group="group38"><path id="path20" visibility="visible" stroke="#000000" stroke-width="2" stroke-opacity="1" stroke-linecap="round" stroke-linejoin="round" stroke-dasharray="none" marker-start="none" marker-end="none" fill="#000000" fill-rule="evenodd" fill-opacity="1" data-name="curve" data-title="curve" deg="180" data-sw="2" data-grad="0" data-group="group38" data-edit="1" filter="none" d="M253.152 143.339 L301 97.405 L224.646 97.405 L253.152 143.339 Z " data-centerx="159.922" data-centery="91.826"></path><path id="path2" visibility="visible" stroke="#000000" stroke-width="2" stroke-opacity="1" stroke-linecap="round" stroke-linejoin="round" stroke-dasharray="none" marker-start="none" marker-end="none" fill="#000000" fill-rule="evenodd" fill-opacity="1" data-name="curve" data-title="curve" deg="0" data-sw="2" data-grad="0" data-group="group38" data-edit="1" filter="none" d="M66.848 143.339 L19 97.405 L95.354 97.405 L66.848 143.339 Z " data-centerx="-45.724" data-centery="91.826"></path></g><path id="path29" visibility="visible" stroke="#000000" stroke-width="2" stroke-opacity="1" stroke-linecap="round" stroke-linejoin="round" stroke-dasharray="none" marker-start="none" marker-end="none" fill="#000000" fill-rule="evenodd" fill-opacity="1" data-name="curve" data-title="curve" deg="0" data-sw="2" data-grad="0" data-group="group38" data-edit="1" filter="none" d="M66.849 143.524 L95.16 97.534 C98.234 94.024 102.344 89.631 106.638 87.872 L137.644 82.05 C142.342 81.269 147.462 81.021 152.364 81.552 C151.007 116.668 100.816 169.964 61.256 183.818 C60.28 173.709 62.056 151.955 66.849 143.524 Z " data-centerx="3.783" data-centery="103.999"></path><g id="group15" visibility="visible" stroke="#000000" stroke-width="2" stroke-opacity="1" stroke-dasharray="none" fill="none" fill-opacity="1" data-name="group" data-title="group" deg="0" data-edit="1" data-centerx="56.5" data-centery="115" data-group="group38"><path id="path14" visibility="visible" stroke="#000000" stroke-width="2" stroke-opacity="1" stroke-linecap="round" stroke-linejoin="round" stroke-dasharray="none" marker-start="none" marker-end="none" fill="#FFFFFF" fill-rule="evenodd" fill-opacity="1" data-name="curve" data-title="curve" deg="0" data-sw="2" data-grad="0" data-group="group38" data-edit="1" filter="none" d="M179.343 152.088 C179.343 141.562 187.131 132.949 196.65 132.949 C206.169 132.949 213.957 141.562 213.957 152.088 C213.957 162.615 206.169 171.228 196.65 171.228 C187.131 171.228 179.343 162.615 179.343 152.088 Z " data-centerx="88.149" data-centery="110.419"></path><path id="path13" visibility="visible" stroke="#000000" stroke-width="2" stroke-opacity="1" stroke-linecap="round" stroke-linejoin="round" stroke-dasharray="none" marker-start="none" marker-end="none" fill="#FFFFFF" fill-rule="evenodd" fill-opacity="1" data-name="curve" data-title="curve" deg="0" data-sw="2" data-grad="0" data-group="group38" data-edit="1" filter="none" d="M106.043 152.088 C106.043 141.562 113.831 132.949 123.35 132.949 C132.869 132.949 140.657 141.562 140.657 152.088 C140.657 162.615 132.869 171.228 123.35 171.228 C113.831 171.228 106.043 162.615 106.043 152.088 Z " data-centerx="14.85" data-centery="110.419"></path></g></g></g></g><g id="settings" visibility="hidden" data-dn0="primalDraw" data-dn1="#FAFAFA" data-dn2="#D2D2D2" data-dn3="18" data-dn4="#000000" data-dn5="#FFFFFF" data-dn6="1" data-dn7="1" data-dn8="2" data-dn9="round" data-dn10="round" data-dn11="none" data-dn12="none" data-dn13="none" data-dn14="evenodd" data-dn15="10" data-dn16="1" data-dn17="320" data-dn18="320" data-dn19="10" data-dn20="0" data-dn21="1" data-dn22="1" data-dn23="39" data-dn24="group38" data-dn25="2" data-dn26="url(#linear0)" data-dn27="url(#linear1)" data-dn28="url(#radial0)" data-dn29="url(#radial1)" data-dn30="#FF8000" data-dn31="#FFFF00" data-dn32="#000000" data-dn33="1" data-dn34="1" data-dn35="10" data-dn36="" data-dn37="0" data-dn38="76"></g></svg>